<?xml version="1.0" standalone="no"?>
<!DOCTYPE svg PUBLIC "-//W3C//DTD SVG 20010904//EN"
 "http://www.w3.org/TR/2001/REC-SVG-20010904/DTD/svg10.dtd">
<svg version="1.0" xmlns="http://www.w3.org/2000/svg"
 width="1486.000000pt" height="1486.000000pt" viewBox="0 0 1486.000000 1486.000000"
 preserveAspectRatio="xMidYMid meet">
<metadata>
Created by potrace 1.11, written by Peter Selinger 2001-2013
</metadata>
<g transform="translate(0.000000,1486.000000) scale(0.100000,-0.100000)"
fill="#000000" stroke="none">
<path d="M7655 12456 c-220 -50 -429 -237 -451 -405 -4 -28 -9 -53 -13 -55 -3
-2 -64 -9 -136 -16 -459 -42 -790 -168 -1150 -436 -60 -45 -151 -121 -202
-168 l-92 -87 -138 -20 c-210 -31 -461 -84 -633 -133 -515 -148 -1030 -397
-1482 -718 l-98 -69 -137 15 c-277 30 -475 39 -753 33 -283 -6 -362 -13 -560
-47 -421 -72 -804 -257 -1145 -551 -337 -290 -542 -609 -636 -989 -21 -85 -23
-118 -24 -315 0 -173 4 -237 18 -300 73 -336 296 -746 615 -1133 146 -176 434
-462 561 -556 163 -121 338 -218 522 -290 l81 -31 82 -175 c372 -792 975
-1601 1706 -2288 257 -242 446 -390 697 -546 700 -434 1496 -677 2533 -773
246 -22 1019 -26 1225 -5 705 71 1240 210 1761 457 531 252 1098 676 1783
1334 776 743 1230 1386 1331 1882 23 111 33 329 34 709 0 194 -3 229 -28 364
l-28 148 38 54 c22 29 91 119 155 199 128 161 308 410 503 695 325 477 537
762 641 865 26 25 106 73 225 135 184 94 185 95 238 165 66 89 114 181 142
272 18 61 21 91 18 200 -3 121 -5 132 -35 194 -58 118 -177 202 -344 243 -193
48 -645 -21 -1045 -158 -421 -144 -733 -312 -1218 -654 l-331 -233 -35 43
c-243 294 -562 626 -793 824 -377 321 -781 575 -1152 724 l-130 52 -42 62
c-163 238 -421 497 -641 644 -125 84 -191 120 -311 168 l-106 44 -6 72 c-20
233 -256 488 -504 544 -98 22 -428 29 -510 10z m-5330 -2939 c-203 -162 -364
-386 -490 -682 -146 -344 -253 -785 -301 -1249 l-18 -169 -89 92 c-165 173
-287 343 -383 534 -100 198 -116 383 -55 618 58 218 217 474 364 584 132 100
365 195 611 250 140 31 281 53 351 54 l50 0 -40 -32z m6765 -853 c45 -19 96
-69 123 -119 31 -60 35 -188 9 -293 -95 -374 -538 -804 -981 -952 -353 -119
-658 -21 -1198 381 -318 238 -546 339 -764 339 -182 0 -279 -38 -395 -154 -88
-89 -136 -160 -235 -348 -98 -184 -145 -256 -223 -336 -74 -76 -134 -102 -237
-102 -158 0 -229 93 -229 299 0 206 88 400 285 631 185 217 476 413 720 485
111 33 290 44 399 25 202 -36 418 -145 714 -363 190 -140 321 -223 447 -283
163 -78 222 -95 352 -101 199 -10 298 24 424 144 91 87 154 175 245 344 108
201 192 316 270 369 82 57 186 70 274 34z m248 -1743 c93 -48 134 -118 140
-242 15 -294 -237 -669 -627 -930 -515 -347 -899 -310 -1496 143 -278 210
-488 327 -669 372 -78 20 -245 23 -320 6 -88 -20 -156 -60 -236 -139 -94 -93
-139 -159 -242 -355 -99 -186 -163 -280 -239 -350 -68 -63 -126 -86 -216 -86
-105 0 -157 30 -201 115 -22 43 -27 66 -30 162 -4 98 -1 123 22 203 113 393
553 809 996 942 82 25 290 35 383 19 200 -35 458 -166 725 -370 120 -91 318
-219 415 -267 147 -74 256 -106 377 -112 192 -8 299 29 423 147 88 84 150 172
239 336 150 278 245 388 366 422 58 16 141 9 190 -16z"/>
</g>
</svg>
