<?xml version="1.0" encoding="utf-8"?>
<!-- Generator: Adobe Illustrator 15.1.0, SVG Export Plug-In . SVG Version: 6.00 Build 0)  -->
<!DOCTYPE svg PUBLIC "-//W3C//DTD SVG 1.1//EN" "http://www.w3.org/Graphics/SVG/1.1/DTD/svg11.dtd">
<svg version="1.1" id="Layer_1" xmlns="http://www.w3.org/2000/svg" xmlns:xlink="http://www.w3.org/1999/xlink" x="0px" y="0px"
	 width="340.533px" height="149.131px" viewBox="0 0 340.533 149.131" enable-background="new 0 0 340.533 149.131"
	 xml:space="preserve">
<g>
	<g>
		<path fill="#F4BC60" d="M237.084,99.567c-13.015,0.34-26.394,1.519-40.142,3.54c-13.748,2.02-23.002,4.135-27.754,6.346
			c-0.949,1.646-2.998,3.051-6.152,4.217c-3.155,1.162-6.572,1.794-10.248,1.89c-1.698,0.044-3.259-0.031-4.677-0.226
			c-7.838-1.959-11.788-4.212-11.854-6.76c-0.011-0.388,0.121-0.699,0.4-0.938c0.325-3.795,9.569-7.551,27.73-11.27
			c17.598-3.629,37.425-5.96,59.479-7c15.689-0.798,27.918-1.309,36.69-1.538c22.205-0.579,37.011-0.079,44.412,1.506
			c0.438,0.452,0.661,0.91,0.673,1.374c0.059,2.238-4.455,4.152-13.544,5.742c-9.087,1.588-20.352,2.559-33.787,2.909
			c-2.266,0.06-5.768,0.094-10.509,0.101C243.06,99.47,239.487,99.504,237.084,99.567z"/>
	</g>
	<path fill="#F08281" d="M174.99,68.128c-1.063,6.006-4.254,12.381-9.571,19.129c-0.905,0.854-1.955,1.652-3.149,2.393
		c0.712,1.441,1.361,3.354,1.949,5.74c0.587,2.385,0.913,4.393,0.979,6.021c0.019,0.45,0.013,0.836-0.015,1.164
		c-0.323,1.076-0.894,1.629-1.708,1.662c-0.572,0.023-1.153-0.238-1.746-0.785c-1.201-1.422-2.748-6.298-4.637-14.633
		c-1.745-7.767-3.267-16.073-4.565-24.922c-0.553-2.508-0.752-3.928-0.603-4.262c-0.214-1.256-0.008-2.203,0.619-2.842
		c1.668-0.148,2.945-0.364,3.832-0.646c1.347-0.014,3.156-0.178,5.431-0.496c2.272-0.316,3.837-0.492,4.694-0.527
		c2.445-0.1,4.363,0.415,5.757,1.542c1.803,2.173,2.771,4.909,2.906,8.21C175.208,65.976,175.149,67.062,174.99,68.128z
		 M169.924,62.517c-0.455-2.145-1.58-3.201-3.375-3.169c-2.734,0.03-5.044,0.205-6.929,0.526c-1.885,0.322-2.821,0.666-2.806,1.033
		c0.005,0.123,0.153,0.26,0.445,0.41c-0.085-0.077-0.148-0.137-0.19-0.176c-0.204,0.008-0.292,0.359-0.264,1.053
		c0.071,1.752,0.673,4.503,1.806,8.254c0.64,6.71,1.451,11.086,2.432,13.129c0.01,0.244,0.097,0.363,0.26,0.356
		c0.571-0.022,1.436-0.833,2.596-2.433c1.361-2.668,2.723-5.337,4.084-8.004c1.584-3.209,2.323-6.116,2.217-8.726
		C170.169,64.039,170.077,63.286,169.924,62.517z"/>
	<path fill="#F08281" d="M199.493,86.423c0.379,1.291,0.601,2.729,0.665,4.319c0.085,2.079-0.101,4.058-0.555,5.933
		c-0.454,1.877-1.075,3.197-1.859,3.965c-0.718,1.459-2.869,2.26-6.455,2.404c-1.019,0.042-1.98,0-2.883-0.127
		c-2.464-0.348-4.813-1.875-7.045-4.582c-2.233-2.704-3.534-5.582-3.902-8.627c-0.069-0.692-0.117-1.363-0.144-2.017
		c-0.107-2.648,0.108-5.087,0.651-7.313c0.542-2.228,1.295-3.564,2.256-4.011c0.959-1.509,2.64-2.313,5.045-2.41
		c2.12-0.087,4.038,0.407,5.757,1.48c1.592,1.036,3.272,2.685,5.038,4.939C197.827,82.632,198.971,84.647,199.493,86.423z
		 M192.949,88.157c-0.254-2.234-1.1-4.211-2.537-5.928c-1.438-1.718-2.907-2.484-4.41-2.301c-0.6,0.31-1.061,1.289-1.382,2.934
		c-0.321,1.647-0.384,3.344-0.19,5.092c0.258,2.357,0.966,4.44,2.121,6.252c1.156,1.811,2.302,2.631,3.438,2.462
		c0.97-0.243,1.765-1.011,2.387-2.302c0.621-1.29,0.898-2.731,0.834-4.32C193.183,89.394,193.097,88.765,192.949,88.157z"/>
	<path fill="#F08281" d="M218.424,68.386c0.043,1.061-0.434,1.896-1.428,2.508c-2.85,1.259-4.257,2.255-4.228,2.988
		c0.002,0.041,0.044,0.08,0.127,0.117c0.007,0.163,0.246,2.032,0.719,5.605c0.308,2.559,0.88,4.598,1.719,6.113
		c0.89-0.197,1.619-1.074,2.189-2.629c0.568-1.555,1.139-2.344,1.709-2.366c0.407-0.017,0.948,0.206,1.62,0.669
		c0.882,0.617,1.353,1.619,1.408,3.004c0.032,0.775-0.103,1.496-0.402,2.16c-0.598,1.372-1.459,2.775-2.584,4.208
		c-1.126,1.435-2.071,2.289-2.835,2.565c-1.338,0.258-2.667-0.055-3.989-0.939c-1.321-0.886-2.091-1.977-2.307-3.275
		c-0.305-0.437-1.146-4.606-2.529-12.513c-0.544-0.303-1.223-0.439-2.037-0.406c-0.327,0.013-0.836,0.065-1.524,0.153
		c-0.69,0.09-1.199,0.142-1.525,0.154c-1.793,0.073-2.988-0.715-3.587-2.365c-0.086-0.118-0.134-0.26-0.14-0.422
		c-0.03-0.734,0.724-1.57,2.256-2.512c1.532-0.939,3.35-1.697,5.45-2.272c-1.063-5.999-1.387-10.477-0.976-13.433
		c0.467-0.59,1.045-0.9,1.737-0.929c1.631-0.066,2.938,0.964,3.923,3.087c-0.047-1.141,0.37,2.088,1.252,9.686
		c1.397-0.75,2.564-1.146,3.503-1.184C217.534,66.095,218.361,66.837,218.424,68.386z"/>
	<path fill="#F08281" d="M241.634,69.749c0.043,1.061-0.435,1.896-1.429,2.507c-2.848,1.26-4.256,2.256-4.227,2.99
		c0.002,0.041,0.044,0.08,0.127,0.117c0.007,0.162,0.246,2.031,0.718,5.604c0.308,2.56,0.881,4.599,1.719,6.114
		c0.89-0.197,1.62-1.075,2.189-2.629c0.569-1.555,1.139-2.344,1.71-2.367c0.406-0.016,0.948,0.207,1.619,0.669
		c0.883,0.618,1.353,1.62,1.408,3.005c0.032,0.775-0.103,1.496-0.401,2.159c-0.599,1.372-1.46,2.776-2.585,4.208
		c-1.126,1.436-2.07,2.289-2.835,2.565c-1.337,0.259-2.666-0.054-3.988-0.939c-1.321-0.886-2.092-1.976-2.307-3.274
		c-0.305-0.438-1.147-4.607-2.53-12.514c-0.543-0.303-1.223-0.439-2.037-0.406c-0.327,0.014-0.835,0.066-1.524,0.154
		c-0.69,0.09-1.199,0.141-1.524,0.154c-1.794,0.072-2.989-0.715-3.587-2.365c-0.086-0.119-0.134-0.26-0.14-0.423
		c-0.03-0.733,0.723-1.569,2.256-2.511c1.531-0.939,3.35-1.698,5.449-2.273c-1.062-5.998-1.386-10.477-0.976-13.432
		c0.467-0.591,1.045-0.9,1.738-0.93c1.63-0.066,2.938,0.964,3.923,3.086c-0.047-1.141,0.369,2.089,1.251,9.687
		c1.398-0.749,2.565-1.146,3.503-1.183C240.744,67.458,241.571,68.2,241.634,69.749z"/>
	<path fill="#F08281" d="M263.346,55.178c0.565,5.855,0.953,11.351,1.162,16.487c0.21,5.176,0.254,10.298,0.134,15.365
		c-0.083,3.962-0.765,7.541-2.042,10.738c-1.279,3.195-2.636,4.721-4.071,4.574c-0.445,0.1-0.912,0.16-1.401,0.18
		c-1.549,0.063-3.081-0.242-4.6-0.915c-1.518-0.674-2.563-1.51-3.132-2.506c-0.876-1.435-1.343-2.905-1.404-4.413
		c-0.047-1.142,0.188-1.887,0.704-2.233c0.393-0.384,0.813-0.585,1.262-0.603c1.101-0.045,1.883,0.639,2.349,2.047
		c-0.309,0.462-0.45,0.938-0.431,1.426c0.064,1.59,1.406,2.494,4.029,2.715c1.064,0.08,1.897-1.537,2.497-4.848
		c0.601-3.312,0.807-7.288,0.617-11.935c-0.057-1.386-0.155-2.79-0.294-4.214c-0.97,1.264-1.94,2.508-2.91,3.73
		c-1.165,1.478-2.399,2.241-3.703,2.294c-0.449,0.019-0.92-0.022-1.414-0.126c-3.354-2.154-5.128-5.621-5.322-10.4
		c-0.076-1.877,0.118-4.646,0.58-8.308c0.465-3.661,0.667-6.226,0.606-7.695c0.474-1.37,1.242-2.076,2.303-2.12
		c1.182-0.047,2.214,0.75,3.098,2.393c-0.025,1.434-0.226,4.021-0.603,7.761c-0.355,3.331-0.494,5.935-0.417,7.815
		c0.068,1.676,0.291,3.202,0.675,4.578c0.821,0.131,1.921-0.455,3.297-1.758c1.376-1.3,2.598-1.87,3.666-1.711
		c-0.372-4.107-0.553-10.06-0.543-17.859c0.594-1.452,1.482-2.203,2.665-2.252C261.761,53.343,262.644,53.941,263.346,55.178z"/>
	<g>
		<path fill="#B57D7A" d="M340.396,0.99c2.631-9.526-33.4,52.71-35.466,57.344s-1.678,7.544-1.678,7.544l7.891,4.393
			c0,0,2.825-1.529,5.194-5.235C318.705,61.328,340.396,0.99,340.396,0.99z"/>
		<path fill="#3B1A20" d="M301.602,68.161c1.464-0.271,7.986,3.169,8.165,6.236c0.18,3.068,2.924,26.408-28.253,23.17
			c-26.044-2.705,3.495,1.456,8.856-11.181C294.215,77.325,299.027,68.638,301.602,68.161z"/>
	</g>
	<g>
		<g>
			<path fill="#F4BC60" d="M160.562,128.488c0,1.964-0.111,3.992-0.336,6.083c-0.208,1.996-0.424,3.177-0.647,3.544
				c-0.032,0.383-0.36,0.575-0.984,0.575c-0.16,0-0.32-0.023-0.479-0.072c-0.177,0.112-0.572-0.226-1.188-1.013
				c-0.616-0.787-1.204-1.706-1.764-2.755c-0.336,0.256-0.568,0.736-0.696,1.44c-0.208,1.04-0.336,1.616-0.384,1.728
				c-0.225,0.544-0.616,0.816-1.176,0.816c-0.112,0-0.24-0.008-0.385-0.024c-0.224,0.016-0.592-0.54-1.104-1.668
				c-0.513-1.128-0.96-2.372-1.344-3.732l-1.464-5.112c0.048-0.399,0.327-0.6,0.84-0.6c0.319,0,0.64,0.096,0.96,0.288
				c0.544,0.48,0.96,1.313,1.248,2.496c0.336,1.424,0.624,2.336,0.863,2.736c0.272-0.255,0.488-0.72,0.648-1.392
				c0.176-0.848,0.313-1.36,0.408-1.536c0.224-0.48,0.607-0.72,1.151-0.72c0.128,0,0.272,0.016,0.433,0.048
				c0.56,0.432,0.983,1.08,1.271,1.944c0.448,1.408,0.681,2.128,0.696,2.16c0.111,0.384,0.248,0.576,0.408,0.576
				c0.031,0,0.063-0.024,0.096-0.072c0.416-0.88,0.664-1.968,0.744-3.264c0.128-1.968,0.2-2.984,0.216-3.048
				c0.336-0.4,0.68-0.6,1.032-0.6c0.271,0,0.496,0.108,0.672,0.323C160.474,127.854,160.562,128.137,160.562,128.488z"/>
			<path fill="#F4BC60" d="M173.113,128.488c0,1.964-0.111,3.992-0.336,6.083c-0.208,1.996-0.424,3.177-0.647,3.544
				c-0.032,0.383-0.36,0.575-0.984,0.575c-0.16,0-0.32-0.023-0.479-0.072c-0.177,0.112-0.572-0.226-1.188-1.013
				c-0.616-0.787-1.204-1.706-1.764-2.755c-0.336,0.256-0.568,0.736-0.696,1.44c-0.208,1.04-0.336,1.616-0.384,1.728
				c-0.225,0.544-0.616,0.816-1.176,0.816c-0.112,0-0.24-0.008-0.385-0.024c-0.224,0.016-0.592-0.54-1.104-1.668
				c-0.513-1.128-0.96-2.372-1.344-3.732l-1.464-5.112c0.048-0.399,0.327-0.6,0.84-0.6c0.319,0,0.64,0.096,0.96,0.288
				c0.544,0.48,0.96,1.313,1.248,2.496c0.336,1.424,0.624,2.336,0.863,2.736c0.272-0.255,0.488-0.72,0.648-1.392
				c0.176-0.848,0.313-1.36,0.408-1.536c0.224-0.48,0.607-0.72,1.151-0.72c0.128,0,0.272,0.016,0.433,0.048
				c0.56,0.432,0.983,1.08,1.271,1.944c0.448,1.408,0.681,2.128,0.696,2.16c0.111,0.384,0.248,0.576,0.408,0.576
				c0.031,0,0.063-0.024,0.096-0.072c0.416-0.88,0.664-1.968,0.744-3.264c0.128-1.968,0.2-2.984,0.216-3.048
				c0.336-0.4,0.68-0.6,1.032-0.6c0.271,0,0.496,0.108,0.672,0.323C173.025,127.854,173.113,128.137,173.113,128.488z"/>
			<path fill="#F4BC60" d="M185.665,128.488c0,1.964-0.111,3.992-0.336,6.083c-0.208,1.996-0.424,3.177-0.647,3.544
				c-0.032,0.383-0.36,0.575-0.984,0.575c-0.16,0-0.32-0.023-0.479-0.072c-0.177,0.112-0.572-0.226-1.188-1.013
				c-0.616-0.787-1.204-1.706-1.764-2.755c-0.336,0.256-0.568,0.736-0.696,1.44c-0.208,1.04-0.336,1.616-0.384,1.728
				c-0.225,0.544-0.616,0.816-1.176,0.816c-0.112,0-0.24-0.008-0.385-0.024c-0.224,0.016-0.592-0.54-1.104-1.668
				c-0.513-1.128-0.96-2.372-1.344-3.732l-1.464-5.112c0.048-0.399,0.327-0.6,0.84-0.6c0.319,0,0.64,0.096,0.96,0.288
				c0.544,0.48,0.96,1.313,1.248,2.496c0.336,1.424,0.624,2.336,0.863,2.736c0.272-0.255,0.488-0.72,0.648-1.392
				c0.176-0.848,0.313-1.36,0.408-1.536c0.224-0.48,0.607-0.72,1.151-0.72c0.128,0,0.272,0.016,0.433,0.048
				c0.56,0.432,0.983,1.08,1.271,1.944c0.448,1.408,0.681,2.128,0.696,2.16c0.111,0.384,0.248,0.576,0.408,0.576
				c0.031,0,0.063-0.024,0.096-0.072c0.416-0.88,0.664-1.968,0.744-3.264c0.128-1.968,0.2-2.984,0.216-3.048
				c0.336-0.4,0.68-0.6,1.032-0.6c0.271,0,0.496,0.108,0.672,0.323C185.577,127.854,185.665,128.137,185.665,128.488z"/>
			<path fill="#F4BC60" d="M189.146,136.795c0.079,1.184-0.2,1.864-0.84,2.04c-0.129-0.096-0.32-0.144-0.576-0.144
				c-0.208,0-0.417,0-0.624,0c-0.336-0.032-0.561-0.216-0.672-0.552c-0.112-0.464-0.168-0.824-0.168-1.08
				c0-0.464,0.176-0.832,0.527-1.104c0.464,0,0.928,0,1.393,0C188.713,136.019,189.033,136.299,189.146,136.795z"/>
			<path fill="#F4BC60" d="M199.514,136.411c-0.4,0.496-0.96,0.888-1.68,1.176c-0.433,0.192-1.112,0.396-2.04,0.612
				c-0.929,0.216-1.608,0.413-2.04,0.588c-0.353,0.032-0.704,0.048-1.057,0.048c-1.04,0-1.924-0.152-2.651-0.456
				c-0.729-0.304-1.092-0.68-1.092-1.128c0-0.08,0.016-0.16,0.048-0.24c-0.016-0.048-0.024-0.096-0.024-0.144
				c0-0.288,0.313-0.432,0.937-0.432c0.239,0,0.596,0.04,1.067,0.12s0.828,0.12,1.068,0.12c1.359,0,2.728-0.424,4.104-1.272
				c0.112-0.016,0.168-0.087,0.168-0.216c0-0.128-0.056-0.256-0.168-0.384c-1.392-0.64-2.58-1.388-3.563-2.244
				c-0.984-0.856-1.477-1.556-1.477-2.1c0-0.144,0.049-0.272,0.145-0.384c0.128-0.368,0.483-0.812,1.067-1.332
				s1.172-0.916,1.765-1.188c0.208-0.16,0.495-0.24,0.864-0.24c0.479,0,0.888,0.128,1.224,0.384
				c0.063,0.128,0.096,0.256,0.096,0.384c0,0.384-0.384,0.884-1.151,1.5c-0.769,0.616-1.152,1.06-1.152,1.332
				c0,0.416,0.487,0.808,1.464,1.176c0.88,0.464,1.76,0.936,2.64,1.416c1.009,0.656,1.513,1.432,1.513,2.328
				C199.586,136.011,199.562,136.203,199.514,136.411z"/>
			<path fill="#F4BC60" d="M201.841,127.411c0,1.472,0.172,2.988,0.516,4.548c0.345,1.56,0.732,2.612,1.164,3.156
				c0.336,0.112,0.616,0.348,0.841,0.708c0.224,0.36,0.336,0.749,0.336,1.164c0,0.192-0.024,0.368-0.072,0.528
				c-0.448,0.88-0.937,1.32-1.464,1.32c-0.08,0-0.145-0.016-0.192-0.048c-0.784-0.048-1.512-1.104-2.184-3.168
				c-0.656-2-1.032-4.248-1.128-6.744c-0.081-1.776-0.12-3.16-0.12-4.152c0-2.512,0.184-4.184,0.552-5.016
				c0.096-0.048,0.192-0.072,0.288-0.072c0.464,0,0.836,0.516,1.116,1.548c0.279,1.032,0.42,2.308,0.42,3.828
				c0,0.256-0.013,0.652-0.036,1.188C201.853,126.735,201.841,127.139,201.841,127.411z"/>
			<path fill="#F4BC60" d="M208.178,124.675c0,0.528-0.017,0.84-0.048,0.936c-0.081,0.352-0.28,0.544-0.601,0.576
				c-0.256,0.16-0.496,0.24-0.72,0.24c-0.368,0-0.729-0.208-1.08-0.624c-0.256-0.384-0.513-0.76-0.768-1.128
				c-0.032-0.384,0.104-0.68,0.407-0.888s0.681-0.312,1.128-0.312c0.448,0,0.841,0.104,1.177,0.312S208.178,124.291,208.178,124.675
				z M208.178,129.379l0.624,8.976c-0.368,0.32-0.736,0.48-1.104,0.48c-0.352,0-0.695-0.16-1.032-0.48l-0.863-0.864l-0.84-8.544
				c0.304-0.432,0.751-0.648,1.344-0.648C207.233,128.299,207.857,128.659,208.178,129.379z"/>
			<path fill="#F4BC60" d="M219.097,138.163c0.271,1.232,0.408,2.456,0.408,3.672c0,1.12-0.116,2.048-0.348,2.784
				c-0.232,0.735-0.549,1.128-0.948,1.176c-0.784,0.32-1.624,0.48-2.521,0.48c-1.424,0-2.392-0.264-2.903-0.792
				c-0.209-0.048-0.313-0.168-0.313-0.36c0-0.208,0.128-0.424,0.384-0.648c0.912-0.144,2.137-0.384,3.672-0.72
				c0.225-0.64,0.337-1.528,0.337-2.664c0-1.936-0.265-3.567-0.793-4.896c-0.128-0.096-0.256-0.144-0.384-0.144
				c-0.32,0-0.472,0.2-0.456,0.6c-0.063,0.288-0.368,0.688-0.912,1.2c-0.592,0.528-1.079,0.808-1.464,0.84
				c-1.008-0.016-1.888-0.304-2.64-0.864s-1.128-1.2-1.128-1.92c0-0.144,0.016-0.279,0.048-0.408
				c0.063-4.32,1.376-7.056,3.936-8.208c0.208-0.144,0.48-0.216,0.816-0.216c1.04,0,1.952,0.44,2.736,1.32L219.097,138.163z
				 M215.017,134.275c0.048-0.272-0.073-1.584-0.362-3.936c-0.161-0.496-0.411-0.744-0.749-0.744c-0.049,0-0.105,0.008-0.17,0.024
				c-0.628,0.496-1.144,1.2-1.547,2.112c-0.402,0.912-0.604,1.8-0.604,2.664c0,0.48,0.064,0.904,0.193,1.272
				c0.209,0.304,0.435,0.456,0.677,0.456c0.289,0,0.713-0.328,1.269-0.984S214.71,134.195,215.017,134.275z"/>
			<path fill="#F4BC60" d="M222.169,125.611c0,1.456,0.184,2.528,0.553,3.216c1.104-0.864,2.392-1.296,3.863-1.296
				c0.992,0,1.712,0.24,2.16,0.72c0.016-0.016,0.04-0.024,0.072-0.024c0.495,0,0.92,1.52,1.271,4.56c0.24,2,0.385,3.84,0.433,5.52
				c-0.272,0.368-0.593,0.552-0.96,0.552c-1.104,0-1.656-0.368-1.656-1.104c0-0.128,0.024-0.248,0.072-0.36
				c-0.177-2.96-0.561-5.12-1.152-6.48c-0.192-0.416-0.36-0.608-0.504-0.576c-0.225-0.032-0.448-0.048-0.672-0.048
				c-0.769,0-1.433,0.244-1.992,0.732c-0.561,0.488-0.84,1.108-0.84,1.86c0,0.208,0.031,0.44,0.096,0.696
				c0.288,1.312,0.432,2.44,0.432,3.384c0,0.768-0.088,1.272-0.264,1.512c-0.288,0.096-0.568,0.144-0.84,0.144
				c-0.832,0-1.28-0.352-1.344-1.056c-0.112-1.056-0.288-2.632-0.528-4.728l-1.104-10.2c0.352-0.399,0.695-0.6,1.031-0.6
				c0.528,0,0.984,0.48,1.368,1.44C222.001,124.275,222.169,124.987,222.169,125.611z"/>
			<path fill="#F4BC60" d="M238.536,129.067c0,0.417-0.2,0.736-0.6,0.96c-1.137,0.448-1.704,0.816-1.704,1.104
				c0,0.016,0.016,0.032,0.048,0.048c0,0.064,0.063,0.8,0.192,2.208c0.079,1.008,0.271,1.816,0.575,2.424
				c0.353-0.064,0.652-0.396,0.9-0.996s0.483-0.9,0.708-0.9c0.16,0,0.368,0.096,0.624,0.288c0.336,0.256,0.504,0.656,0.504,1.2
				c0,0.304-0.064,0.584-0.192,0.84c-0.256,0.528-0.615,1.064-1.079,1.608c-0.465,0.544-0.849,0.864-1.152,0.96
				c-0.528,0.08-1.044-0.064-1.548-0.432c-0.504-0.368-0.788-0.808-0.853-1.32c-0.112-0.176-0.376-1.824-0.792-4.944
				c-0.208-0.127-0.472-0.192-0.792-0.192c-0.128,0-0.328,0.012-0.6,0.036c-0.272,0.024-0.473,0.036-0.601,0.036
				c-0.704,0-1.159-0.328-1.367-0.984c-0.032-0.048-0.048-0.104-0.048-0.168c0-0.288,0.308-0.604,0.924-0.948
				c0.615-0.344,1.34-0.612,2.172-0.804c-0.32-2.368-0.376-4.128-0.168-5.28c0.191-0.224,0.424-0.336,0.695-0.336
				c0.641,0,1.137,0.424,1.488,1.272c0-0.448,0.112,0.824,0.336,3.816c0.561-0.272,1.024-0.408,1.393-0.408
				C238.225,128.155,238.536,128.459,238.536,129.067z"/>
			<path fill="#F4BC60" d="M242.089,127.411c0,1.472,0.172,2.988,0.516,4.548c0.345,1.56,0.732,2.612,1.164,3.156
				c0.336,0.112,0.616,0.348,0.841,0.708c0.224,0.36,0.336,0.749,0.336,1.164c0,0.192-0.024,0.368-0.072,0.528
				c-0.448,0.88-0.937,1.32-1.464,1.32c-0.08,0-0.145-0.016-0.192-0.048c-0.784-0.048-1.512-1.104-2.184-3.168
				c-0.656-2-1.032-4.248-1.128-6.744c-0.081-1.776-0.12-3.16-0.12-4.152c0-2.512,0.184-4.184,0.552-5.016
				c0.096-0.048,0.192-0.072,0.288-0.072c0.464,0,0.836,0.516,1.116,1.548c0.279,1.032,0.42,2.308,0.42,3.828
				c0,0.256-0.013,0.652-0.036,1.188C242.101,126.735,242.089,127.139,242.089,127.411z"/>
			<path fill="#F4BC60" d="M252.553,127.795c0.128,2.304,0.191,4.464,0.191,6.48c0,2.032-0.063,4.041-0.191,6.024
				c-0.096,1.552-0.42,2.944-0.972,4.176c-0.553,1.232-1.108,1.808-1.669,1.728c-0.176,0.032-0.359,0.048-0.552,0.048
				c-0.608,0-1.204-0.144-1.788-0.432s-0.979-0.632-1.188-1.032c-0.32-0.576-0.48-1.16-0.48-1.752c0-0.448,0.104-0.736,0.313-0.864
				c0.159-0.144,0.327-0.216,0.504-0.216c0.432,0,0.728,0.28,0.888,0.84c-0.128,0.176-0.191,0.36-0.191,0.552
				c0,0.624,0.512,1,1.535,1.128c0.416,0.048,0.769-0.572,1.057-1.86s0.432-2.844,0.432-4.668c0-0.543-0.016-1.096-0.048-1.656
				c-0.4,0.48-0.8,0.952-1.2,1.416c-0.479,0.56-0.976,0.84-1.488,0.84c-0.176,0-0.359-0.024-0.552-0.072
				c-1.28-0.898-1.92-2.285-1.92-4.161c0-0.737,0.12-1.819,0.36-3.247s0.359-2.429,0.359-3.006c0.208-0.529,0.521-0.794,0.937-0.794
				c0.464,0,0.855,0.329,1.176,0.986c-0.032,0.562-0.152,1.573-0.36,3.032c-0.191,1.3-0.287,2.318-0.287,3.057
				c0,0.658,0.063,1.259,0.191,1.805c0.32,0.064,0.76-0.148,1.32-0.636c0.56-0.488,1.048-0.692,1.464-0.612
				c-0.08-1.616-0.057-3.952,0.072-7.008c0.256-0.56,0.615-0.84,1.08-0.84C251.96,127.051,252.297,127.299,252.553,127.795z"/>
			<path fill="#F4BC60" d="M261.815,133.939c0.128,0.4,0.192,0.8,0.192,1.2c0,0.944-0.272,1.752-0.816,2.424
				c-0.992,0.688-1.832,1.032-2.52,1.032c-0.208,0-0.408,0-0.601,0c-0.063,0.923-0.096,1.846-0.096,2.768
				c0,0.907,0.032,1.448,0.096,1.623c0.049,1.066,0.017,1.977-0.096,2.732c-0.112,0.755-0.264,1.133-0.456,1.133
				c-0.032,0-0.072,0-0.12,0s-0.112,0-0.191,0c-0.24,0-0.504-0.132-0.792-0.396c-0.288-0.264-0.504-0.612-0.648-1.044
				c0.128-0.272-0.416-5.4-1.632-15.384c-0.399-0.08-0.732-0.276-0.996-0.588s-0.396-0.636-0.396-0.972
				c0-0.144,0.023-0.28,0.071-0.408c0.32-0.272,0.688-0.408,1.104-0.408c0.207,0,0.487,0.032,0.84,0.096
				c0.416,0.08,0.704,0.128,0.864,0.144c1.376,0.448,2.716,1.304,4.02,2.568C260.947,131.723,261.672,132.883,261.815,133.939z
				 M259.368,133.938c0.048-0.32-0.184-0.752-0.694-1.296c-0.51-0.544-1.092-0.984-1.745-1.32l0.647,5.424
				c0.175,0.081,0.366,0.105,0.573,0.073c0.207-0.032,0.342-0.112,0.406-0.24c0.589-0.304,0.884-0.976,0.884-2.017
				C259.439,134.355,259.416,134.146,259.368,133.938z"/>
			<path fill="#F4BC60" d="M271.536,132.427c0.128,0.513,0.192,1.08,0.192,1.704c0,0.816-0.104,1.588-0.313,2.316
				c-0.208,0.729-0.472,1.236-0.792,1.524c-0.304,0.56-1.16,0.84-2.567,0.84c-0.4,0-0.776-0.032-1.128-0.096
				c-0.96-0.176-1.856-0.812-2.688-1.908c-0.832-1.096-1.296-2.244-1.392-3.444c-0.017-0.271-0.024-0.536-0.024-0.792
				c0-1.04,0.124-1.992,0.372-2.856c0.248-0.864,0.564-1.376,0.948-1.536c0.399-0.576,1.071-0.864,2.016-0.864
				c0.832,0,1.576,0.224,2.232,0.672c0.607,0.432,1.239,1.104,1.896,2.016S271.36,131.723,271.536,132.427z M268.944,133.003
				c-0.064-0.88-0.364-1.668-0.9-2.364c-0.536-0.696-1.1-1.02-1.691-0.972c-0.24,0.112-0.437,0.488-0.588,1.128
				c-0.152,0.64-0.204,1.304-0.156,1.992c0.063,0.928,0.308,1.756,0.732,2.484c0.423,0.728,0.859,1.068,1.308,1.02
				c0.384-0.08,0.708-0.368,0.972-0.864c0.265-0.496,0.396-1.056,0.396-1.68C269.017,133.491,268.992,133.243,268.944,133.003z"/>
			<path fill="#F4BC60" d="M279.575,129.067c0,0.417-0.2,0.736-0.6,0.96c-1.137,0.448-1.704,0.816-1.704,1.104
				c0,0.016,0.016,0.032,0.048,0.048c0,0.064,0.063,0.8,0.192,2.208c0.079,1.008,0.271,1.816,0.575,2.424
				c0.353-0.064,0.652-0.396,0.9-0.996s0.483-0.9,0.708-0.9c0.16,0,0.368,0.096,0.624,0.288c0.336,0.256,0.504,0.656,0.504,1.2
				c0,0.304-0.064,0.584-0.192,0.84c-0.256,0.528-0.615,1.064-1.079,1.608c-0.465,0.544-0.849,0.864-1.152,0.96
				c-0.528,0.08-1.044-0.064-1.548-0.432c-0.504-0.368-0.788-0.808-0.853-1.32c-0.112-0.176-0.376-1.824-0.792-4.944
				c-0.208-0.127-0.472-0.192-0.792-0.192c-0.128,0-0.328,0.012-0.6,0.036c-0.272,0.024-0.473,0.036-0.601,0.036
				c-0.704,0-1.159-0.328-1.367-0.984c-0.032-0.048-0.048-0.104-0.048-0.168c0-0.288,0.308-0.604,0.924-0.948
				c0.615-0.344,1.34-0.612,2.172-0.804c-0.32-2.368-0.376-4.128-0.168-5.28c0.191-0.224,0.424-0.336,0.695-0.336
				c0.641,0,1.137,0.424,1.488,1.272c0-0.448,0.112,0.824,0.336,3.816c0.561-0.272,1.024-0.408,1.393-0.408
				C279.264,128.155,279.575,128.459,279.575,129.067z"/>
			<path fill="#F4BC60" d="M288.216,129.067c0,0.417-0.2,0.736-0.6,0.96c-1.137,0.448-1.704,0.816-1.704,1.104
				c0,0.016,0.016,0.032,0.048,0.048c0,0.064,0.063,0.8,0.192,2.208c0.079,1.008,0.271,1.816,0.575,2.424
				c0.353-0.064,0.652-0.396,0.9-0.996s0.483-0.9,0.708-0.9c0.16,0,0.368,0.096,0.624,0.288c0.336,0.256,0.504,0.656,0.504,1.2
				c0,0.304-0.064,0.584-0.192,0.84c-0.256,0.528-0.615,1.064-1.079,1.608c-0.465,0.544-0.849,0.864-1.152,0.96
				c-0.528,0.08-1.044-0.064-1.548-0.432c-0.504-0.368-0.788-0.808-0.853-1.32c-0.112-0.176-0.376-1.824-0.792-4.944
				c-0.208-0.127-0.472-0.192-0.792-0.192c-0.128,0-0.328,0.012-0.6,0.036c-0.272,0.024-0.473,0.036-0.601,0.036
				c-0.704,0-1.159-0.328-1.367-0.984c-0.032-0.048-0.048-0.104-0.048-0.168c0-0.288,0.308-0.604,0.924-0.948
				c0.615-0.344,1.34-0.612,2.172-0.804c-0.32-2.368-0.376-4.128-0.168-5.28c0.191-0.224,0.424-0.336,0.695-0.336
				c0.641,0,1.137,0.424,1.488,1.272c0-0.448,0.112,0.824,0.336,3.816c0.561-0.272,1.024-0.408,1.393-0.408
				C287.904,128.155,288.216,128.459,288.216,129.067z"/>
			<path fill="#F4BC60" d="M296.759,127.795c0.128,2.304,0.191,4.464,0.191,6.48c0,2.032-0.063,4.041-0.191,6.024
				c-0.096,1.552-0.42,2.944-0.972,4.176c-0.553,1.232-1.108,1.808-1.669,1.728c-0.176,0.032-0.359,0.048-0.552,0.048
				c-0.608,0-1.204-0.144-1.788-0.432s-0.979-0.632-1.188-1.032c-0.32-0.576-0.48-1.16-0.48-1.752c0-0.448,0.104-0.736,0.313-0.864
				c0.159-0.144,0.327-0.216,0.504-0.216c0.432,0,0.728,0.28,0.888,0.84c-0.128,0.176-0.191,0.36-0.191,0.552
				c0,0.624,0.512,1,1.535,1.128c0.416,0.048,0.769-0.572,1.057-1.86s0.432-2.844,0.432-4.668c0-0.543-0.016-1.096-0.048-1.656
				c-0.4,0.48-0.8,0.952-1.2,1.416c-0.479,0.56-0.976,0.84-1.488,0.84c-0.176,0-0.359-0.024-0.552-0.072
				c-1.28-0.898-1.92-2.285-1.92-4.161c0-0.737,0.12-1.819,0.36-3.247s0.359-2.429,0.359-3.006c0.208-0.529,0.521-0.794,0.937-0.794
				c0.464,0,0.855,0.329,1.176,0.986c-0.032,0.562-0.152,1.573-0.36,3.032c-0.191,1.3-0.287,2.318-0.287,3.057
				c0,0.658,0.063,1.259,0.191,1.805c0.32,0.064,0.76-0.148,1.32-0.636c0.56-0.488,1.048-0.692,1.464-0.612
				c-0.08-1.616-0.057-3.952,0.072-7.008c0.256-0.56,0.615-0.84,1.08-0.84C296.166,127.051,296.503,127.299,296.759,127.795z"/>
			<path fill="#F4BC60" d="M300.167,136.795c0.079,1.184-0.2,1.864-0.84,2.04c-0.129-0.096-0.32-0.144-0.576-0.144
				c-0.208,0-0.417,0-0.624,0c-0.336-0.032-0.561-0.216-0.672-0.552c-0.112-0.464-0.168-0.824-0.168-1.08
				c0-0.464,0.176-0.832,0.527-1.104c0.464,0,0.928,0,1.393,0C299.734,136.019,300.055,136.299,300.167,136.795z"/>
			<path fill="#F4BC60" d="M307.343,128.875c0.08,0.128,0.12,0.256,0.12,0.384c0,0.288-0.128,0.464-0.384,0.528
				c-0.176,0.048-0.353,0.072-0.528,0.072c-0.32,0-0.704-0.08-1.151-0.24c-0.353-0.128-0.704-0.264-1.057-0.408
				c-0.256-0.096-0.592,0.552-1.008,1.944c-0.416,1.44-0.576,2.632-0.479,3.576c0.063,0.864,0.464,1.296,1.199,1.296
				c0.16,0,0.328-0.032,0.505-0.096c0.176,0.256,0.56,0.344,1.151,0.264c0.688-0.096,1.144-0.087,1.368,0.024
				c0.096,0.112,0.144,0.28,0.144,0.504c0,0.352-0.104,0.696-0.312,1.032c-0.24,0.384-0.536,0.624-0.888,0.72
				c-0.272,0.304-0.672,0.456-1.2,0.456c-0.416,0-1.257-0.208-2.521-0.624c-1.12-0.352-1.68-2.208-1.68-5.568
				c0-0.224,0-0.483,0-0.78c0-0.296,0-0.468,0-0.516v-0.168c-0.016,0-0.032,0.032-0.048,0.096c0.096-0.8,0.388-1.672,0.876-2.616
				c0.488-0.944,0.956-1.512,1.404-1.704c0.256-0.144,0.552-0.216,0.888-0.216c0.688,0,1.44,0.256,2.256,0.768
				C306.768,128.067,307.215,128.491,307.343,128.875z"/>
			<path fill="#F4BC60" d="M316.559,132.427c0.128,0.513,0.192,1.08,0.192,1.704c0,0.816-0.104,1.588-0.313,2.316
				c-0.208,0.729-0.472,1.236-0.792,1.524c-0.304,0.56-1.16,0.84-2.567,0.84c-0.4,0-0.776-0.032-1.128-0.096
				c-0.96-0.176-1.856-0.812-2.688-1.908c-0.832-1.096-1.296-2.244-1.392-3.444c-0.017-0.271-0.024-0.536-0.024-0.792
				c0-1.04,0.124-1.992,0.372-2.856c0.248-0.864,0.564-1.376,0.948-1.536c0.399-0.576,1.071-0.864,2.016-0.864
				c0.832,0,1.576,0.224,2.232,0.672c0.607,0.432,1.239,1.104,1.896,2.016S316.383,131.723,316.559,132.427z M313.967,133.003
				c-0.064-0.88-0.364-1.668-0.9-2.364c-0.536-0.696-1.1-1.02-1.691-0.972c-0.24,0.112-0.437,0.488-0.588,1.128
				c-0.152,0.64-0.204,1.304-0.156,1.992c0.063,0.928,0.308,1.756,0.732,2.484c0.423,0.728,0.859,1.068,1.308,1.02
				c0.384-0.08,0.708-0.368,0.972-0.864c0.265-0.496,0.396-1.056,0.396-1.68C314.039,133.491,314.015,133.243,313.967,133.003z"/>
			<path fill="#F4BC60" d="M320.374,128.107c0.224-0.048,0.447-0.072,0.672-0.072c1.2,0,2.12,0.584,2.76,1.752
				c-0.176,0.048-0.144,0.192,0.096,0.432c0.08-0.288,0.324-0.52,0.732-0.696c0.408-0.176,0.819-0.24,1.236-0.192
				c0.768,0.08,1.483,0.976,2.147,2.688c0.664,1.712,1.012,3.56,1.044,5.544c-0.128,0.352-0.352,0.528-0.672,0.528
				c-0.368,0-0.696-0.224-0.983-0.672c-0.129-0.736-0.353-1.64-0.673-2.712c-0.32-1.072-0.624-1.88-0.911-2.424
				c-0.272-0.288-0.473-0.432-0.601-0.432s-0.216,0.104-0.264,0.312c-0.032,1.056-0.057,3.04-0.072,5.952
				c0.111,0.48-0.184,0.72-0.888,0.72c-0.177,0-0.36-0.008-0.553-0.024c-0.191-0.016-0.352-0.088-0.479-0.216
				c-0.128-0.127-0.177-0.264-0.144-0.408c-0.017-2.08-0.169-3.964-0.456-5.652c-0.288-1.688-0.601-2.5-0.937-2.436
				c-0.448,0.08-0.824,0.264-1.128,0.552s-0.456,0.592-0.456,0.912c0,0.128,0.024,0.248,0.072,0.36
				c0.224,2.145,0.424,4.232,0.6,6.264c-0.16,0.336-0.624,0.52-1.392,0.552c-0.641-0.352-0.937-0.792-0.889-1.32
				c-0.159-1.68-0.312-3.368-0.455-5.064c-0.192-2.016-0.4-3.584-0.624-4.704c0.159-0.224,0.423-0.336,0.792-0.336
				c0.271,0,0.575,0.064,0.911,0.192c0.097,0.032,0.256,0.192,0.48,0.48c0.224,0.288,0.416,0.432,0.576,0.432
				C320.062,128.419,320.214,128.315,320.374,128.107z"/>
		</g>
	</g>
	<path fill="#F05929" d="M270.791,96.171c0,0,16.927-4.226,19.189-9.111c1.875-4.049,0.997,2.085,1.625,2.063
		c2.672-0.094,0.173,1.113,1.506,1.516c2.229,0.16,3.428-1.563,3.885-0.672c0.323,0.63-1.614,1.484,0.011,1.922s4.896-1.313,4.083,0
		s3.91,0.34,2.047,1.563c-1.059,0.694-4.604,4.842-15.317,4.604C277.257,97.82,269.34,96.575,270.791,96.171z"/>
	<g>
		<path fill="#5D415D" d="M85.249,56.492c1.635,1.013,3.184,2.36,4.646,4.043c1.911,2.198,3.365,4.581,4.362,7.138
			c0.995,2.558,1.28,4.685,0.864,6.377c0.273,2.383-1.997,5.584-6.812,9.615c-1.365,1.145-2.725,2.137-4.077,2.973
			c-3.692,2.273-8.244,3.124-13.656,2.551c-5.412-0.571-9.69-2.341-12.825-5.3c-0.696-0.688-1.34-1.377-1.939-2.067
			c-2.437-2.803-4.247-5.724-5.424-8.764c-1.176-3.042-1.295-5.327-0.357-6.855c0.017-2.698,1.637-5.397,4.861-8.101
			c2.845-2.382,5.914-3.908,9.206-4.58c3.086-0.576,6.825-0.572,11.202,0.009S82.996,55.099,85.249,56.492z"/>
		<path fill="#5D415D" d="M79.702,49.858c0.49,0.304,0.955,0.708,1.396,1.217c0.574,0.658,1.011,1.374,1.309,2.144
			c0.302,0.768,0.387,1.406,0.264,1.916c0.08,0.716-0.602,1.68-2.048,2.889c-0.41,0.344-0.819,0.643-1.226,0.892
			c-1.109,0.686-2.479,0.942-4.104,0.769c-1.625-0.171-2.911-0.703-3.853-1.592c-0.21-0.208-0.403-0.414-0.584-0.622
			c-0.73-0.844-1.275-1.72-1.63-2.634c-0.354-0.914-0.39-1.6-0.106-2.061c0.002-0.81,0.491-1.622,1.461-2.434
			c0.854-0.717,1.776-1.173,2.768-1.376c0.925-0.173,2.049-0.173,3.364,0.003C78.028,49.143,79.023,49.439,79.702,49.858z"/>
		<path fill="#5D415D" d="M40.563,69.836c1.862,1.162,3.626,2.706,5.297,4.628c2.182,2.514,3.847,5.231,4.992,8.146
			c1.145,2.914,1.483,5.334,1.021,7.256c0.325,2.711-2.228,6.339-7.659,10.889c-1.541,1.297-3.078,2.415-4.606,3.353
			c-4.169,2.564-9.328,3.501-15.47,2.813c-6.137-0.686-11-2.724-14.577-6.109c-0.791-0.788-1.527-1.574-2.213-2.364
			c-2.781-3.203-4.853-6.536-6.205-10.001c-1.355-3.466-1.506-6.065-0.452-7.799c0.002-3.067,1.821-6.128,5.461-9.18
			c3.209-2.69,6.678-4.404,10.408-5.148c3.496-0.634,7.735-0.606,12.704,0.084C34.233,67.092,38,68.237,40.563,69.836z"/>
		<path fill="#F5ECE1" d="M32.014,75.946c1.068,0.668,2.08,1.554,3.037,2.657c1.253,1.44,2.207,3.001,2.865,4.671
			c0.656,1.673,0.852,3.06,0.586,4.163c0.186,1.555-1.278,3.636-4.394,6.245c-0.884,0.744-1.767,1.385-2.644,1.924
			c-2.392,1.47-5.349,2.009-8.872,1.612c-3.522-0.393-6.31-1.561-8.362-3.503c-0.453-0.453-0.877-0.903-1.27-1.356
			c-1.594-1.839-2.783-3.749-3.559-5.735c-0.778-1.989-0.864-3.479-0.26-4.476c-0.002-1.759,1.045-3.514,3.133-5.265
			c1.84-1.544,3.828-2.526,5.968-2.954c2.007-0.363,4.438-0.347,7.288,0.049C28.383,74.374,30.542,75.03,32.014,75.946z"/>
		<path fill="#5D415D" d="M97.25,66.651c3.806,2.358,7.405,5.489,10.807,9.402c4.449,5.117,7.828,10.654,10.143,16.6
			c2.316,5.949,2.98,10.892,2.013,14.829c0.635,5.54-4.646,12.989-15.837,22.356c-3.177,2.667-6.339,4.973-9.485,6.911
			c-8.584,5.292-19.173,7.271-31.758,5.934c-12.583-1.327-22.529-5.44-29.826-12.319c-1.613-1.603-3.112-3.2-4.511-4.811
			c-5.665-6.519-9.871-13.309-12.607-20.38c-2.738-7.069-3.016-12.386-0.835-15.941c0.038-6.273,3.805-12.55,11.308-18.838
			c6.615-5.54,13.748-9.087,21.406-10.651c7.176-1.337,15.873-1.329,26.053,0.02C84.299,61.117,92.01,63.413,97.25,66.651z"/>
		<g>
			<g>
				<path fill="#5D415D" d="M74.104,126.726c-7.597,3.163-13.217,4.041-16.867,2.636c-0.388,0.03-0.758,0.014-1.127-0.055
					c-1.826-0.34-3.969-1.906-6.412-4.703c-2.448-2.794-4.47-6.005-6.068-9.628c-0.811-1.085-1.115-2.134-0.93-3.135
					c0.432-2.316,2.753-3.963,6.977-4.944c0.887-0.044,1.946,0.05,3.168,0.275c2.804,0.522,5.523,1.497,8.166,2.923
					c2.637,1.428,4.328,2.835,5.081,4.224c1.363-1.206,4.969-3.654,10.833-7.346c4.615-3.095,7.188-6.331,9.693-8.337
					c12.613-10.101,14.795-13.055,15.503-12.093c5.276-3.28,10.5-6.571,15.659-9.877c6.188-3.426,12.049-5.091,17.588-4.996
					c3.414,0.637,4.843,2.459,4.281,5.476c-0.24,1.307-0.993,2.623-2.25,3.951c-4.229,1.707-9.349,4.812-15.359,9.307
					c-6.88,5.063-11.862,8.457-14.958,10.165"/>
			</g>
		</g>
		<g>
			<path fill="#FFFFFF" d="M58.193,90.668c-0.904,0.142-1.664,0.475-2.282,0.996c-0.618,0.524-1.163,1.139-1.634,1.839
				c-0.473,0.703-0.888,1.456-1.25,2.26c-0.36,0.803-0.741,1.552-1.144,2.242c-0.401,0.691-0.848,1.289-1.339,1.792
				c-0.49,0.505-1.096,0.813-1.813,0.924c-0.88,0.138-1.562-0.006-2.041-0.429c-0.481-0.423-0.785-1.039-0.912-1.85
				c-0.142-0.904-0.08-1.839,0.186-2.805c0.263-0.967,0.68-1.909,1.247-2.828c0.568-0.918,1.249-1.802,2.042-2.648
				c0.793-0.848,1.636-1.602,2.529-2.264c0.893-0.662,1.809-1.214,2.747-1.656c0.938-0.443,1.849-0.733,2.729-0.872
				c1.342-0.209,2.608-0.151,3.797,0.173c1.19,0.324,2.323,0.788,3.402,1.39c1.079,0.604,2.132,1.269,3.158,1.998
				c1.027,0.73,2.069,1.397,3.125,2.004c1.055,0.606,2.131,1.079,3.227,1.417c1.098,0.34,2.26,0.413,3.487,0.221
				c0.88-0.138,1.63-0.463,2.249-0.974c0.619-0.512,1.167-1.107,1.643-1.786s0.895-1.41,1.26-2.19
				c0.364-0.78,0.75-1.504,1.154-2.173c0.406-0.668,0.85-1.246,1.33-1.736c0.48-0.491,1.059-0.789,1.729-0.894
				c0.765-0.119,1.441,0.037,2.029,0.467c0.591,0.43,0.945,1.026,1.063,1.79c0.142,0.904,0.062,1.829-0.242,2.778
				c-0.302,0.948-0.749,1.878-1.343,2.79c-0.593,0.91-1.3,1.779-2.119,2.607c-0.82,0.828-1.684,1.567-2.589,2.219
				c-0.906,0.65-1.825,1.192-2.754,1.621c-0.929,0.431-1.787,0.707-2.576,0.83c-1.342,0.209-2.596,0.15-3.762-0.178
				c-1.167-0.327-2.289-0.793-3.367-1.396c-1.079-0.604-2.132-1.274-3.162-2.016c-1.028-0.74-2.064-1.415-3.109-2.023
				c-1.043-0.606-2.112-1.081-3.21-1.419C60.583,90.551,59.42,90.477,58.193,90.668z"/>
		</g>
		<g>
			<path fill="#FFFFFF" d="M60.955,108.354c-0.903,0.141-1.665,0.474-2.283,0.996c-0.617,0.524-1.162,1.138-1.634,1.839
				c-0.472,0.703-0.888,1.456-1.249,2.26c-0.36,0.803-0.742,1.551-1.144,2.242c-0.402,0.691-0.849,1.288-1.339,1.792
				c-0.491,0.504-1.096,0.812-1.813,0.924c-0.88,0.137-1.561-0.006-2.042-0.429c-0.48-0.423-0.784-1.04-0.912-1.85
				c-0.14-0.903-0.078-1.839,0.186-2.805c0.264-0.967,0.681-1.909,1.249-2.828s1.249-1.802,2.042-2.649
				c0.792-0.848,1.635-1.602,2.529-2.264c0.893-0.66,1.809-1.213,2.747-1.656s1.848-0.732,2.728-0.871
				c1.344-0.209,2.61-0.151,3.799,0.174c1.19,0.324,2.324,0.787,3.402,1.389c1.078,0.604,2.131,1.27,3.158,1.998
				c1.027,0.729,2.069,1.397,3.124,2.003c1.056,0.606,2.132,1.08,3.228,1.418c1.098,0.339,2.259,0.412,3.486,0.221
				c0.88-0.138,1.63-0.461,2.25-0.975c0.619-0.512,1.167-1.107,1.642-1.786c0.476-0.679,0.896-1.409,1.261-2.189
				c0.363-0.78,0.749-1.504,1.153-2.172c0.406-0.669,0.851-1.248,1.331-1.737c0.48-0.492,1.057-0.789,1.729-0.894
				c0.765-0.119,1.441,0.036,2.03,0.466s0.942,1.027,1.062,1.791c0.142,0.903,0.062,1.829-0.241,2.778
				c-0.303,0.948-0.751,1.878-1.344,2.79c-0.594,0.909-1.3,1.778-2.119,2.606c-0.82,0.828-1.684,1.567-2.59,2.22
				c-0.905,0.651-1.824,1.191-2.754,1.621c-0.929,0.43-1.787,0.707-2.574,0.829c-1.343,0.211-2.598,0.151-3.765-0.177
				c-1.165-0.328-2.287-0.793-3.366-1.396c-1.077-0.603-2.132-1.274-3.161-2.016c-1.029-0.74-2.065-1.416-3.108-2.023
				c-1.044-0.607-2.114-1.081-3.212-1.42C63.344,108.236,62.182,108.163,60.955,108.354z"/>
		</g>
		<g>
			<g>
				<path fill="#5D415D" d="M104.672,121.939c-4.269,3.531-7.727,5.228-10.377,5.089c-0.246,0.098-0.488,0.164-0.741,0.195
					c-1.251,0.16-2.958-0.388-5.113-1.646c-2.156-1.253-4.122-2.856-5.898-4.804c-0.747-0.516-1.16-1.111-1.245-1.777
					c-0.196-1.541,0.97-3.048,3.504-4.524c0.565-0.208,1.27-0.364,2.106-0.473c1.923-0.242,3.883-0.185,5.884,0.172
					c1.999,0.359,3.381,0.897,4.153,1.615c0.634-1.034,2.468-3.306,5.508-6.815c2.352-2.881,3.354-5.437,4.564-7.205
					c6.096-8.905,6.902-11.203,7.559-10.744c2.742-3.134,5.45-6.262,8.11-9.387c3.304-3.41,6.757-5.648,10.361-6.717
					c2.34-0.296,3.638,0.557,3.891,2.564c0.113,0.868-0.104,1.847-0.646,2.938c-2.388,1.932-5.066,4.921-8.035,8.966
					c-3.416,4.579-5.944,7.723-7.599,9.425"/>
			</g>
		</g>
	</g>
	<g>
		<g>
			<g>
				<path fill="#83A49C" d="M131.893,9.265c-3.955,4.121-8.091,8.371-12.402,12.752c0.958-0.529,3.668-0.66,8.129-0.393
					c1.392,0.107,3.187,0.789,5.381,2.047s3.871,2.598,5.031,4.021c2.15,2.689,3.303,5.907,3.455,9.657
					c0.147,3.628-0.61,7.089-2.272,10.38c-1.635,1.986-3.435,3.641-5.401,4.966s-3.547,1.909-4.736,1.754
					c-6.462,0.712-11.887,0.851-16.271,0.417c-1.938-0.451-2.926-1.146-2.964-2.084c-0.03-0.734,0.659-1.354,2.068-1.861
					c1.277,0.316,5.888,0.211,13.826-0.316c2.36-0.177,4.627-1.422,6.8-3.736c2.171-2.313,3.39-4.721,3.655-7.222
					c0.286-0.991,0.403-2.118,0.352-3.382c-0.131-3.219-0.956-5.452-2.476-6.697c-2.027-2.652-5.404-3.883-10.132-3.691
					c-2.772,0.113-5.195,0.785-7.267,2.012c-0.783,0.849-1.685,1.293-2.702,1.334c-0.611,0.025-1.067-0.141-1.368-0.496
					c-1.314-0.191-1.994-0.857-2.04-1.999c-0.014-0.325,0.075-0.655,0.266-0.99c0.021-1.511,1.826-4.279,5.419-8.304
					c3.593-4.023,7.524-7.716,11.798-11.074c0.957-0.568,1.802-0.869,2.535-0.898c1.141-0.047,1.734,0.502,1.781,1.643
					C132.381,7.713,132.227,8.435,131.893,9.265z"/>
				<path fill="#83A49C" d="M151.493,24.449c0.153,3.75,0.747,7.595,1.786,11.532c1.037,3.938,2.136,6.578,3.293,7.919
					c0.867,0.251,1.604,0.823,2.213,1.716c0.606,0.896,0.933,1.872,0.976,2.932c0.021,0.488-0.023,0.939-0.129,1.352
					c-1.05,2.289-2.248,3.46-3.593,3.515c-0.204,0.009-0.367-0.024-0.493-0.103c-2.002-0.041-3.967-2.655-5.892-7.844
					c-1.879-5.027-3.068-10.715-3.572-17.063c-0.389-4.516-0.633-8.037-0.736-10.564c-0.26-6.398,0.035-10.676,0.887-12.835
					c0.24-0.132,0.482-0.202,0.727-0.212c1.182-0.049,2.183,1.227,3.003,3.827c0.819,2.601,1.31,5.837,1.467,9.708
					c0.026,0.652,0.037,1.662,0.031,3.029C151.454,22.728,151.466,23.757,151.493,24.449z"/>
				<path fill="#83A49C" d="M167.351,16.823c0.055,1.346,0.045,2.143-0.026,2.39c-0.167,0.905-0.657,1.415-1.468,1.528
					c-0.636,0.437-1.239,0.664-1.81,0.688c-0.938,0.038-1.877-0.453-2.815-1.479c-0.693-0.95-1.385-1.881-2.073-2.794
					c-0.121-0.974,0.193-1.742,0.947-2.304c0.752-0.561,1.699-0.865,2.841-0.912c1.141-0.047,2.15,0.18,3.028,0.674
					C166.852,15.108,167.311,15.846,167.351,16.823z M167.838,28.807l2.519,22.8c-0.905,0.854-1.825,1.3-2.763,1.338
					c-0.897,0.036-1.79-0.336-2.679-1.115l-2.289-2.112l-3.025-21.678c0.729-1.132,1.849-1.728,3.356-1.79
					C165.32,26.153,166.946,27.006,167.838,28.807z"/>
				<path fill="#83A49C" d="M196.564,50.052c0.82,3.109,1.294,6.213,1.42,9.311c0.115,2.853-0.085,5.229-0.599,7.128
					c-0.516,1.899-1.279,2.931-2.293,3.095c-1.964,0.896-4.087,1.391-6.369,1.483c-3.628,0.147-6.12-0.425-7.479-1.716
					c-0.535-0.102-0.813-0.396-0.833-0.886c-0.021-0.53,0.282-1.093,0.912-1.69c2.308-0.461,5.401-1.198,9.279-2.215
					c0.503-1.653,0.697-3.926,0.58-6.82c-0.201-4.932-1.044-9.061-2.525-12.389c-0.337-0.232-0.668-0.342-0.993-0.328
					c-0.815,0.033-1.183,0.559-1.1,1.576c-0.133,0.739-0.866,1.791-2.199,3.15c-1.453,1.407-2.666,2.17-3.642,2.291
					c-2.569,0.064-4.841-0.578-6.815-1.928c-1.974-1.348-2.997-2.938-3.071-4.773c-0.016-0.367,0.011-0.713,0.08-1.044
					c-0.286-11.011,2.774-18.117,9.176-21.315c0.514-0.389,1.2-0.602,2.056-0.636c2.649-0.108,5.018,0.919,7.106,3.079
					L196.564,50.052z M185.769,40.569c0.095-0.697-0.351-4.027-1.331-9.988c-0.463-1.246-1.124-1.852-1.987-1.816
					c-0.123,0.004-0.265,0.031-0.427,0.077c-1.551,1.329-2.791,3.175-3.722,5.54c-0.933,2.365-1.354,4.648-1.265,6.85
					c0.05,1.223,0.259,2.295,0.626,3.22c0.564,0.753,1.154,1.117,1.771,1.092c0.738-0.03,1.782-0.909,3.13-2.638
					S184.979,40.398,185.769,40.569z"/>
				<path fill="#83A49C" d="M203.088,17.759c0.151,3.709,0.731,6.421,1.74,8.135c2.723-2.315,5.958-3.549,9.709-3.702
					c2.526-0.103,4.386,0.435,5.577,1.611c0.038-0.042,0.098-0.065,0.181-0.069c1.263-0.051,2.5,3.777,3.712,11.484
					c0.819,5.071,1.377,9.742,1.672,14.018c-0.655,0.965-1.45,1.467-2.387,1.506c-2.813,0.113-4.257-0.767-4.333-2.643
					c-0.014-0.325,0.035-0.633,0.146-0.924c-0.756-7.522-1.959-12.984-3.607-16.387c-0.531-1.04-0.979-1.512-1.343-1.416
					c-0.574-0.058-1.146-0.076-1.717-0.053c-1.956,0.08-3.623,0.771-4.998,2.072c-1.378,1.301-2.025,2.909-1.947,4.824
					c0.021,0.53,0.127,1.119,0.316,1.762c0.869,3.313,1.354,6.173,1.451,8.577c0.079,1.956-0.093,3.249-0.516,3.879
					c-0.725,0.274-1.433,0.425-2.126,0.453c-2.119,0.086-3.297-0.763-3.533-2.55c-0.395-2.68-1.006-6.675-1.834-11.99l-3.868-25.869
					c0.854-1.053,1.71-1.6,2.566-1.635c1.344-0.055,2.556,1.121,3.634,3.526C202.522,14.374,203.023,16.169,203.088,17.759z"/>
				<path fill="#83A49C" d="M245.142,24.866c0.043,1.061-0.434,1.896-1.429,2.508c-2.848,1.26-4.256,2.256-4.227,2.988
					c0.002,0.041,0.044,0.081,0.127,0.117c0.007,0.164,0.246,2.033,0.719,5.605c0.307,2.559,0.88,4.598,1.718,6.114
					c0.891-0.198,1.62-1.075,2.189-2.63c0.569-1.553,1.139-2.342,1.71-2.365c0.407-0.018,0.948,0.205,1.62,0.668
					c0.882,0.617,1.352,1.62,1.407,3.005c0.032,0.775-0.102,1.495-0.401,2.159c-0.599,1.373-1.46,2.775-2.585,4.209
					c-1.126,1.435-2.07,2.289-2.834,2.564c-1.338,0.259-2.667-0.055-3.989-0.939c-1.321-0.885-2.091-1.976-2.307-3.275
					c-0.305-0.436-1.147-4.605-2.529-12.512c-0.544-0.303-1.223-0.439-2.038-0.406c-0.326,0.013-0.835,0.064-1.523,0.154
					c-0.691,0.089-1.199,0.141-1.525,0.153c-1.794,0.073-2.989-0.715-3.587-2.365c-0.086-0.118-0.134-0.26-0.14-0.423
					c-0.03-0.733,0.723-1.57,2.256-2.511c1.533-0.939,3.35-1.698,5.449-2.272c-1.062-6-1.386-10.477-0.975-13.434
					c0.466-0.59,1.045-0.9,1.737-0.928c1.631-0.066,2.938,0.963,3.923,3.086c-0.047-1.141,0.37,2.088,1.251,9.686
					c1.398-0.749,2.565-1.145,3.503-1.184C244.252,22.575,245.079,23.317,245.142,24.866z"/>
				<path fill="#83A49C" d="M254.018,20.28c0.153,3.75,0.746,7.594,1.785,11.531c1.038,3.938,2.136,6.579,3.293,7.919
					c0.867,0.251,1.604,0.823,2.213,1.717c0.607,0.896,0.933,1.872,0.976,2.931c0.021,0.488-0.023,0.94-0.128,1.353
					c-1.051,2.288-2.248,3.46-3.593,3.515c-0.205,0.008-0.368-0.025-0.494-0.104c-2.002-0.041-3.967-2.655-5.892-7.844
					c-1.879-5.026-3.068-10.714-3.572-17.063c-0.389-4.516-0.633-8.036-0.736-10.564c-0.26-6.397,0.035-10.676,0.887-12.834
					c0.24-0.133,0.482-0.203,0.728-0.213c1.182-0.049,2.182,1.228,3.002,3.828c0.82,2.6,1.31,5.836,1.467,9.707
					c0.026,0.652,0.037,1.662,0.031,3.029C253.979,18.558,253.99,19.587,254.018,20.28z"/>
			</g>
		</g>
		<path fill="#83A49C" d="M282.774,20.517c0.565,5.855,0.953,11.351,1.162,16.487c0.21,5.176,0.254,10.298,0.134,15.365
			c-0.083,3.962-0.765,7.541-2.042,10.738c-1.279,3.195-2.636,4.721-4.071,4.574c-0.445,0.1-0.912,0.16-1.401,0.18
			c-1.549,0.063-3.081-0.242-4.6-0.915c-1.518-0.674-2.563-1.51-3.132-2.506c-0.876-1.435-1.343-2.905-1.404-4.413
			c-0.047-1.142,0.188-1.887,0.704-2.233c0.393-0.384,0.813-0.585,1.262-0.603c1.101-0.045,1.883,0.639,2.349,2.047
			c-0.309,0.462-0.45,0.938-0.431,1.426c0.064,1.59,1.406,2.494,4.029,2.715c1.064,0.08,1.897-1.537,2.497-4.848
			c0.601-3.312,0.807-7.288,0.617-11.935c-0.057-1.386-0.155-2.79-0.294-4.214c-0.97,1.264-1.94,2.508-2.91,3.73
			c-1.165,1.478-2.399,2.241-3.703,2.294c-0.449,0.019-0.92-0.022-1.414-0.126c-3.354-2.154-5.128-5.621-5.322-10.4
			c-0.076-1.877,0.118-4.646,0.58-8.308c0.465-3.661,0.667-6.226,0.606-7.695c0.474-1.37,1.242-2.076,2.303-2.12
			c1.182-0.047,2.214,0.75,3.098,2.393c-0.025,1.434-0.226,4.021-0.603,7.761c-0.355,3.331-0.494,5.935-0.417,7.815
			c0.068,1.676,0.291,3.202,0.675,4.578c0.821,0.131,1.921-0.455,3.297-1.758c1.376-1.3,2.598-1.87,3.666-1.711
			c-0.372-4.107-0.553-10.06-0.543-17.859c0.594-1.452,1.482-2.203,2.665-2.252C281.189,18.682,282.072,19.28,282.774,20.517z"/>
	</g>
</g>
</svg>
